<svg width="27" height="33" viewBox="0 0 27 33" fill="none" xmlns="http://www.w3.org/2000/svg">
<mask id="path-1-outside-1_1177_53" maskUnits="userSpaceOnUse" x="-0.823486" y="-0.44165" width="28" height="33" fill="black">
<rect fill="white" x="-0.823486" y="-0.44165" width="28" height="33"/>
<path d="M13.7546 27.8865C11.9005 27.8865 10.2546 27.7094 8.81714 27.3552C7.37964 27.0011 5.94735 26.3344 4.52026 25.3552V19.449H8.75464L9.22339 22.4802C9.55672 22.8552 10.1453 23.1729 10.989 23.4333C11.8328 23.6833 12.7546 23.8083 13.7546 23.8083C14.4421 23.8083 15.0255 23.7198 15.5046 23.5427C16.4526 23.199 16.9265 22.5479 16.9265 21.5896C16.9265 21.1417 16.8171 20.7406 16.5984 20.3865C16.1609 19.7198 15.1036 19.0583 13.4265 18.4021C11.5098 17.7875 9.91089 17.1521 8.62964 16.4958C7.37964 15.85 6.44735 15.0844 5.83276 14.199C5.2286 13.3136 4.92651 12.2146 4.92651 10.9021C4.92651 9.64168 5.28589 8.53752 6.00464 7.5896C6.72339 6.6521 7.71297 5.91252 8.97339 5.37085C10.2338 4.82918 11.6765 4.54272 13.3015 4.51147C15.1557 4.46981 16.7963 4.65731 18.2234 5.07397C19.6505 5.48022 20.9109 6.10002 22.0046 6.93335V12.4177H17.9421L17.3015 9.37085C16.9473 9.19377 16.4421 9.03231 15.7859 8.88647C15.1296 8.74064 14.4317 8.66772 13.6921 8.66772C13.0359 8.66772 12.4734 8.75106 12.0046 8.91772C11.5046 9.08439 11.1088 9.33439 10.8171 9.66772C10.5359 10.0011 10.3953 10.4177 10.3953 10.9177C10.3953 11.3136 10.5151 11.6729 10.7546 11.9958C11.0151 12.35 11.4942 12.699 12.1921 13.0427C12.8901 13.3865 13.6765 13.725 14.5515 14.0583C17.1348 14.8188 19.0932 15.7719 20.4265 16.9177C21.7703 18.0531 22.4421 19.6 22.4421 21.5583C22.4421 22.9125 22.0776 24.0531 21.3484 24.9802C20.6192 25.9281 19.6036 26.6521 18.3015 27.1521C16.9994 27.6417 15.4838 27.8865 13.7546 27.8865Z"/>
</mask>
<path d="M13.7546 27.8865C11.9005 27.8865 10.2546 27.7094 8.81714 27.3552C7.37964 27.0011 5.94735 26.3344 4.52026 25.3552V19.449H8.75464L9.22339 22.4802C9.55672 22.8552 10.1453 23.1729 10.989 23.4333C11.8328 23.6833 12.7546 23.8083 13.7546 23.8083C14.4421 23.8083 15.0255 23.7198 15.5046 23.5427C16.4526 23.199 16.9265 22.5479 16.9265 21.5896C16.9265 21.1417 16.8171 20.7406 16.5984 20.3865C16.1609 19.7198 15.1036 19.0583 13.4265 18.4021C11.5098 17.7875 9.91089 17.1521 8.62964 16.4958C7.37964 15.85 6.44735 15.0844 5.83276 14.199C5.2286 13.3136 4.92651 12.2146 4.92651 10.9021C4.92651 9.64168 5.28589 8.53752 6.00464 7.5896C6.72339 6.6521 7.71297 5.91252 8.97339 5.37085C10.2338 4.82918 11.6765 4.54272 13.3015 4.51147C15.1557 4.46981 16.7963 4.65731 18.2234 5.07397C19.6505 5.48022 20.9109 6.10002 22.0046 6.93335V12.4177H17.9421L17.3015 9.37085C16.9473 9.19377 16.4421 9.03231 15.7859 8.88647C15.1296 8.74064 14.4317 8.66772 13.6921 8.66772C13.0359 8.66772 12.4734 8.75106 12.0046 8.91772C11.5046 9.08439 11.1088 9.33439 10.8171 9.66772C10.5359 10.0011 10.3953 10.4177 10.3953 10.9177C10.3953 11.3136 10.5151 11.6729 10.7546 11.9958C11.0151 12.35 11.4942 12.699 12.1921 13.0427C12.8901 13.3865 13.6765 13.725 14.5515 14.0583C17.1348 14.8188 19.0932 15.7719 20.4265 16.9177C21.7703 18.0531 22.4421 19.6 22.4421 21.5583C22.4421 22.9125 22.0776 24.0531 21.3484 24.9802C20.6192 25.9281 19.6036 26.6521 18.3015 27.1521C16.9994 27.6417 15.4838 27.8865 13.7546 27.8865Z" fill="black"/>
<path d="M4.52026 25.3552H0.120264V27.6724L2.03091 28.9833L4.52026 25.3552ZM4.52026 19.449V15.049H0.120264V19.449H4.52026ZM8.75464 19.449L13.103 18.7766L12.5265 15.049H8.75464V19.449ZM9.22339 22.4802L4.87507 23.1526L5.07325 24.4342L5.93479 25.4034L9.22339 22.4802ZM10.989 23.4333L9.69139 27.6377L9.71517 27.645L9.73902 27.6521L10.989 23.4333ZM15.5046 23.5427L14.0046 19.4063L13.992 19.4109L13.9794 19.4155L15.5046 23.5427ZM16.5984 20.3865L20.3419 18.0743L20.3101 18.0229L20.277 17.9724L16.5984 20.3865ZM13.4265 18.4021L15.0299 14.3046L14.9014 14.2544L14.77 14.2122L13.4265 18.4021ZM8.62964 16.4958L6.60995 20.4049L6.61686 20.4085L6.62378 20.412L8.62964 16.4958ZM5.83276 14.199L2.19827 16.679L2.20817 16.6935L2.21818 16.7079L5.83276 14.199ZM6.00464 7.5896L2.51277 4.9125L2.50564 4.9218L2.49856 4.93114L6.00464 7.5896ZM13.3015 4.51147L13.3861 8.91066L13.3932 8.91052L13.4004 8.91036L13.3015 4.51147ZM18.2234 5.07397L16.9902 9.29763L17.0044 9.30178L17.0187 9.30584L18.2234 5.07397ZM22.0046 6.93335H26.4046V4.75414L24.6712 3.43345L22.0046 6.93335ZM22.0046 12.4177V16.8177H26.4046V12.4177H22.0046ZM17.9421 12.4177L13.6363 13.3231L14.3711 16.8177H17.9421V12.4177ZM17.3015 9.37085L21.6074 8.46552L21.1701 6.38579L19.2693 5.43537L17.3015 9.37085ZM12.0046 8.91772L13.396 13.0919L13.4375 13.0781L13.4787 13.0635L12.0046 8.91772ZM10.8171 9.66772L7.5058 6.7703L7.47976 6.80007L7.45426 6.83029L10.8171 9.66772ZM10.7546 11.9958L14.2995 9.38933L14.2939 9.38172L14.2883 9.37412L10.7546 11.9958ZM14.5515 14.0583L12.9851 18.1701L13.145 18.231L13.3091 18.2793L14.5515 14.0583ZM20.4265 16.9177L17.5587 20.2548L17.5727 20.2667L17.5867 20.2786L20.4265 16.9177ZM21.3484 24.9802L17.8899 22.2601L17.8753 22.2787L17.8608 22.2975L21.3484 24.9802ZM18.3015 27.1521L19.8501 31.2706L19.8645 31.2652L19.8788 31.2597L18.3015 27.1521ZM13.7546 27.8865V23.4865C12.1703 23.4865 10.8891 23.3341 9.86972 23.083L8.81714 27.3552L7.76456 31.6275C9.62015 32.0846 11.6306 32.2865 13.7546 32.2865V27.8865ZM8.81714 27.3552L9.86972 23.083C9.02482 22.8748 8.07279 22.4566 7.00962 21.7271L4.52026 25.3552L2.03091 28.9833C3.82191 30.2122 5.73446 31.1273 7.76456 31.6275L8.81714 27.3552ZM4.52026 25.3552H8.92026V19.449H4.52026H0.120264V25.3552H4.52026ZM4.52026 19.449V23.849H8.75464V19.449V15.049H4.52026V19.449ZM8.75464 19.449L4.40632 20.1214L4.87507 23.1526L9.22339 22.4802L13.5717 21.8078L13.103 18.7766L8.75464 19.449ZM9.22339 22.4802L5.93479 25.4034C7.06995 26.6805 8.58711 27.2968 9.69139 27.6377L10.989 23.4333L12.2866 19.229C12.0576 19.1584 11.9811 19.115 12.0049 19.1279C12.0209 19.1365 12.0793 19.1691 12.1644 19.2331C12.2497 19.2972 12.3742 19.402 12.512 19.557L9.22339 22.4802ZM10.989 23.4333L9.73902 27.6521C11.0395 28.0374 12.388 28.2083 13.7546 28.2083V23.8083V19.4083C13.1212 19.4083 12.626 19.3293 12.239 19.2146L10.989 23.4333ZM13.7546 23.8083V28.2083C14.794 28.2083 15.926 28.0779 17.0299 27.6699L15.5046 23.5427L13.9794 19.4155C14.0589 19.3861 14.0883 19.3856 14.0475 19.3918C14.0066 19.398 13.9125 19.4083 13.7546 19.4083V23.8083ZM15.5046 23.5427L17.0047 27.6791C18.0948 27.2838 19.2584 26.5811 20.1283 25.3863C21.011 24.1737 21.3265 22.8177 21.3265 21.5896H16.9265H12.5265C12.5265 21.3199 12.605 20.7685 13.0138 20.207C13.4097 19.6632 13.8624 19.4579 14.0046 19.4063L15.5046 23.5427ZM16.9265 21.5896H21.3265C21.3265 20.3895 21.0225 19.1763 20.3419 18.0743L16.5984 20.3865L12.8549 22.6986C12.6117 22.305 12.5265 21.8938 12.5265 21.5896H16.9265ZM16.5984 20.3865L20.277 17.9724C19.569 16.8936 18.6058 16.1575 17.8109 15.6602C16.9738 15.1365 16.0213 14.6926 15.0299 14.3046L13.4265 18.4021L11.8232 22.4996C12.5088 22.7679 12.9235 22.9828 13.1436 23.1205C13.2484 23.186 13.2667 23.2079 13.2316 23.1767C13.1987 23.1475 13.0686 23.0273 12.9198 22.8006L16.5984 20.3865ZM13.4265 18.4021L14.77 14.2122C12.9988 13.6443 11.6386 13.0934 10.6355 12.5797L8.62964 16.4958L6.62378 20.412C8.18319 21.2108 10.0209 21.9307 12.083 22.592L13.4265 18.4021ZM8.62964 16.4958L10.6493 12.5868C9.84883 12.1732 9.5466 11.833 9.44734 11.69L5.83276 14.199L2.21818 16.7079C3.3481 18.3358 4.91045 19.5268 6.60995 20.4049L8.62964 16.4958ZM5.83276 14.199L9.46726 11.719C9.46412 11.7144 9.32651 11.5305 9.32651 10.9021H4.92651H0.526514C0.526514 12.8987 0.993076 14.9128 2.19827 16.679L5.83276 14.199ZM4.92651 10.9021H9.32651C9.32651 10.5406 9.40778 10.3838 9.51072 10.2481L6.00464 7.5896L2.49856 4.93114C1.164 6.69121 0.526514 8.74277 0.526514 10.9021H4.92651ZM6.00464 7.5896L9.49651 10.2667C9.68772 10.0173 10.0298 9.70598 10.7107 9.41336L8.97339 5.37085L7.23611 1.32834C5.39619 2.11905 3.75906 3.28691 2.51277 4.9125L6.00464 7.5896ZM8.97339 5.37085L10.7107 9.41336C11.3614 9.13372 12.2268 8.93296 13.3861 8.91066L13.3015 4.51147L13.2169 0.112288C11.1263 0.152493 9.10625 0.524648 7.23611 1.32834L8.97339 5.37085ZM13.3015 4.51147L13.4004 8.91036C14.9107 8.87642 16.0871 9.03396 16.9902 9.29763L18.2234 5.07397L19.4566 0.85032C17.5055 0.280656 15.4007 0.0631913 13.2027 0.112585L13.3015 4.51147ZM18.2234 5.07397L17.0187 9.30584C17.9591 9.57355 18.7151 9.95862 19.338 10.4332L22.0046 6.93335L24.6712 3.43345C23.1067 2.24141 21.3418 1.38689 19.4281 0.842105L18.2234 5.07397ZM22.0046 6.93335H17.6046V12.4177H22.0046H26.4046V6.93335H22.0046ZM22.0046 12.4177V8.01772H17.9421V12.4177V16.8177H22.0046V12.4177ZM17.9421 12.4177L22.248 11.5124L21.6074 8.46552L17.3015 9.37085L12.9957 10.2762L13.6363 13.3231L17.9421 12.4177ZM17.3015 9.37085L19.2693 5.43537C18.4468 5.02415 17.5404 4.76904 16.7404 4.59125L15.7859 8.88647L14.8314 13.1817C15.0622 13.233 15.2198 13.2769 15.3175 13.3081C15.4219 13.3415 15.414 13.3464 15.3338 13.3063L17.3015 9.37085ZM15.7859 8.88647L16.7404 4.59125C15.7413 4.36923 14.7211 4.26772 13.6921 4.26772V8.66772V13.0677C14.1423 13.0677 14.518 13.112 14.8314 13.1817L15.7859 8.88647ZM13.6921 8.66772V4.26772C12.6846 4.26772 11.5965 4.39299 10.5306 4.77198L12.0046 8.91772L13.4787 13.0635C13.4091 13.0882 13.3849 13.0884 13.4229 13.0827C13.4611 13.0771 13.5477 13.0677 13.6921 13.0677V8.66772ZM12.0046 8.91772L10.6132 4.74352C9.51279 5.11034 8.40272 5.74525 7.5058 6.7703L10.8171 9.66772L14.1285 12.5651C13.8149 12.9235 13.4965 13.0584 13.396 13.0919L12.0046 8.91772ZM10.8171 9.66772L7.45426 6.83029C6.40627 8.07235 5.99526 9.54018 5.99526 10.9177H10.3953H14.7953C14.7953 11.0816 14.7718 11.3349 14.6697 11.6373C14.5649 11.9476 14.3985 12.2462 14.18 12.5052L10.8171 9.66772ZM10.3953 10.9177H5.99526C5.99526 12.2737 6.42838 13.5493 7.22101 14.6176L10.7546 11.9958L14.2883 9.37412C14.4286 9.56329 14.5633 9.80461 14.6593 10.0927C14.7556 10.3816 14.7953 10.6641 14.7953 10.9177H10.3953ZM10.7546 11.9958L7.20977 14.6024C8.09712 15.8092 9.33448 16.54 10.248 16.9899L12.1921 13.0427L14.1363 9.09553C13.9479 9.00274 13.8837 8.95489 13.8996 8.96643C13.9106 8.97449 13.956 9.0083 14.0226 9.07162C14.0889 9.13464 14.1889 9.23893 14.2995 9.38933L10.7546 11.9958ZM12.1921 13.0427L10.248 16.9899C11.091 17.4051 12.0066 17.7973 12.9851 18.1701L14.5515 14.0583L16.1179 9.9466C15.3465 9.65272 14.6892 9.36784 14.1363 9.09553L12.1921 13.0427ZM14.5515 14.0583L13.3091 18.2793C15.5811 18.9481 16.8822 19.6734 17.5587 20.2548L20.4265 16.9177L23.2943 13.5807C21.3041 11.8704 18.6886 10.6895 15.794 9.83741L14.5515 14.0583ZM20.4265 16.9177L17.5867 20.2786C17.8215 20.477 18.0421 20.7303 18.0421 21.5583H22.4421H26.8421C26.8421 18.4698 25.719 15.6293 23.2663 13.5568L20.4265 16.9177ZM22.4421 21.5583H18.0421C18.0421 22.0791 17.9207 22.2209 17.8899 22.2601L21.3484 24.9802L24.8068 27.7004C26.2344 25.8854 26.8421 23.7459 26.8421 21.5583H22.4421ZM21.3484 24.9802L17.8608 22.2975C17.7024 22.5035 17.3981 22.7857 16.7242 23.0445L18.3015 27.1521L19.8788 31.2597C21.8091 30.5185 23.5361 29.3528 24.8359 27.663L21.3484 24.9802ZM18.3015 27.1521L16.753 23.0336C16.0499 23.298 15.0787 23.4865 13.7546 23.4865V27.8865V32.2865C15.8889 32.2865 17.949 31.9854 19.8501 31.2706L18.3015 27.1521Z" fill="#F2F8FC" mask="url(#path-1-outside-1_1177_53)"/>
<mask id="path-3-outside-2_1177_53" maskUnits="userSpaceOnUse" x="1.17651" y="1.55835" width="24" height="29" fill="black">
<rect fill="white" x="1.17651" y="1.55835" width="24" height="29"/>
<path d="M13.7546 27.8865C11.9005 27.8865 10.2546 27.7094 8.81714 27.3552C7.37964 27.0011 5.94735 26.3344 4.52026 25.3552V19.449H8.75464L9.22339 22.4802C9.55672 22.8552 10.1453 23.1729 10.989 23.4333C11.8328 23.6833 12.7546 23.8083 13.7546 23.8083C14.4421 23.8083 15.0255 23.7198 15.5046 23.5427C16.4526 23.199 16.9265 22.5479 16.9265 21.5896C16.9265 21.1417 16.8171 20.7406 16.5984 20.3865C16.1609 19.7198 15.1036 19.0583 13.4265 18.4021C11.5098 17.7875 9.91089 17.1521 8.62964 16.4958C7.37964 15.85 6.44735 15.0844 5.83276 14.199C5.2286 13.3136 4.92651 12.2146 4.92651 10.9021C4.92651 9.64168 5.28589 8.53752 6.00464 7.5896C6.72339 6.6521 7.71297 5.91252 8.97339 5.37085C10.2338 4.82918 11.6765 4.54272 13.3015 4.51147C15.1557 4.46981 16.7963 4.65731 18.2234 5.07397C19.6505 5.48022 20.9109 6.10002 22.0046 6.93335V12.4177H17.9421L17.3015 9.37085C16.9473 9.19377 16.4421 9.03231 15.7859 8.88647C15.1296 8.74064 14.4317 8.66772 13.6921 8.66772C13.0359 8.66772 12.4734 8.75106 12.0046 8.91772C11.5046 9.08439 11.1088 9.33439 10.8171 9.66772C10.5359 10.0011 10.3953 10.4177 10.3953 10.9177C10.3953 11.3136 10.5151 11.6729 10.7546 11.9958C11.0151 12.35 11.4942 12.699 12.1921 13.0427C12.8901 13.3865 13.6765 13.725 14.5515 14.0583C17.1348 14.8188 19.0932 15.7719 20.4265 16.9177C21.7703 18.0531 22.4421 19.6 22.4421 21.5583C22.4421 22.9125 22.0776 24.0531 21.3484 24.9802C20.6192 25.9281 19.6036 26.6521 18.3015 27.1521C16.9994 27.6417 15.4838 27.8865 13.7546 27.8865Z"/>
</mask>
<path d="M13.7546 27.8865C11.9005 27.8865 10.2546 27.7094 8.81714 27.3552C7.37964 27.0011 5.94735 26.3344 4.52026 25.3552V19.449H8.75464L9.22339 22.4802C9.55672 22.8552 10.1453 23.1729 10.989 23.4333C11.8328 23.6833 12.7546 23.8083 13.7546 23.8083C14.4421 23.8083 15.0255 23.7198 15.5046 23.5427C16.4526 23.199 16.9265 22.5479 16.9265 21.5896C16.9265 21.1417 16.8171 20.7406 16.5984 20.3865C16.1609 19.7198 15.1036 19.0583 13.4265 18.4021C11.5098 17.7875 9.91089 17.1521 8.62964 16.4958C7.37964 15.85 6.44735 15.0844 5.83276 14.199C5.2286 13.3136 4.92651 12.2146 4.92651 10.9021C4.92651 9.64168 5.28589 8.53752 6.00464 7.5896C6.72339 6.6521 7.71297 5.91252 8.97339 5.37085C10.2338 4.82918 11.6765 4.54272 13.3015 4.51147C15.1557 4.46981 16.7963 4.65731 18.2234 5.07397C19.6505 5.48022 20.9109 6.10002 22.0046 6.93335V12.4177H17.9421L17.3015 9.37085C16.9473 9.19377 16.4421 9.03231 15.7859 8.88647C15.1296 8.74064 14.4317 8.66772 13.6921 8.66772C13.0359 8.66772 12.4734 8.75106 12.0046 8.91772C11.5046 9.08439 11.1088 9.33439 10.8171 9.66772C10.5359 10.0011 10.3953 10.4177 10.3953 10.9177C10.3953 11.3136 10.5151 11.6729 10.7546 11.9958C11.0151 12.35 11.4942 12.699 12.1921 13.0427C12.8901 13.3865 13.6765 13.725 14.5515 14.0583C17.1348 14.8188 19.0932 15.7719 20.4265 16.9177C21.7703 18.0531 22.4421 19.6 22.4421 21.5583C22.4421 22.9125 22.0776 24.0531 21.3484 24.9802C20.6192 25.9281 19.6036 26.6521 18.3015 27.1521C16.9994 27.6417 15.4838 27.8865 13.7546 27.8865Z" fill="url(#paint0_linear_1177_53)"/>
<path d="M4.52026 25.3552H2.12026V26.6191L3.16243 27.3342L4.52026 25.3552ZM4.52026 19.449V17.049H2.12026V19.449H4.52026ZM8.75464 19.449L11.1264 19.0822L10.812 17.049H8.75464V19.449ZM9.22339 22.4802L6.85158 22.847L6.95968 23.546L7.42961 24.0747L9.22339 22.4802ZM10.989 23.4333L10.2812 25.7266L10.2942 25.7306L10.3072 25.7345L10.989 23.4333ZM15.5046 23.5427L14.6864 21.2865L14.6796 21.289L14.6727 21.2915L15.5046 23.5427ZM16.5984 20.3865L18.6403 19.1253L18.623 19.0973L18.6049 19.0697L16.5984 20.3865ZM13.4265 18.4021L14.3011 16.1671L14.231 16.1397L14.1593 16.1167L13.4265 18.4021ZM8.62964 16.4958L7.52798 18.6281L7.53554 18.632L8.62964 16.4958ZM5.83276 14.199L3.85031 15.5517L3.85571 15.5596L3.86117 15.5675L5.83276 14.199ZM6.00464 7.5896L4.09996 6.12934L4.09223 6.13953L6.00464 7.5896ZM13.3015 4.51147L13.3477 6.91104L13.3554 6.91087L13.3015 4.51147ZM18.2234 5.07397L17.5507 7.37779L17.5585 7.38005L17.5663 7.38227L18.2234 5.07397ZM22.0046 6.93335H24.4046V5.74469L23.4591 5.02431L22.0046 6.93335ZM22.0046 12.4177V14.8177H24.4046V12.4177H22.0046ZM17.9421 12.4177L15.5935 12.9115L15.9943 14.8177H17.9421V12.4177ZM17.3015 9.37085L19.6502 8.87703L19.4116 7.74263L18.3748 7.22422L17.3015 9.37085ZM12.0046 8.91772L12.7636 11.1946L12.7862 11.187L12.8087 11.179L12.0046 8.91772ZM10.8171 9.66772L9.01095 8.08731L8.99675 8.10355L8.98284 8.12003L10.8171 9.66772ZM10.7546 11.9958L12.6882 10.5741L12.6821 10.5658L10.7546 11.9958ZM14.5515 14.0583L13.6971 16.3011L13.7843 16.3343L13.8738 16.3607L14.5515 14.0583ZM20.4265 16.9177L18.8623 18.7379L18.8699 18.7445L18.8775 18.7509L20.4265 16.9177ZM21.3484 24.9802L19.462 23.4965L19.454 23.5067L19.4461 23.5169L21.3484 24.9802ZM18.3015 27.1521L19.1462 29.3986L19.154 29.3956L19.1619 29.3926L18.3015 27.1521ZM13.7546 27.8865V25.4865C12.0477 25.4865 10.6007 25.3229 9.39127 25.0249L8.81714 27.3552L8.243 29.6855C9.90855 30.0959 11.7533 30.2865 13.7546 30.2865V27.8865ZM8.81714 27.3552L9.39127 25.0249C8.27701 24.7504 7.10668 24.2192 5.87809 23.3763L4.52026 25.3552L3.16243 27.3342C4.78802 28.4496 6.48227 29.2517 8.243 29.6855L8.81714 27.3552ZM4.52026 25.3552H6.92026V19.449H4.52026H2.12026V25.3552H4.52026ZM4.52026 19.449V21.849H8.75464V19.449V17.049H4.52026V19.449ZM8.75464 19.449L6.38283 19.8157L6.85158 22.847L9.22339 22.4802L11.5952 22.1135L11.1264 19.0822L8.75464 19.449ZM9.22339 22.4802L7.42961 24.0747C8.2003 24.9417 9.29536 25.4223 10.2812 25.7266L10.989 23.4333L11.6968 21.1401C11.3801 21.0423 11.1756 20.953 11.0549 20.8878C10.9299 20.8204 10.9473 20.8072 11.0172 20.8858L9.22339 22.4802ZM10.989 23.4333L10.3072 25.7345C11.4001 26.0583 12.5547 26.2083 13.7546 26.2083V23.8083V21.4083C12.9546 21.4083 12.2655 21.3084 11.6708 21.1322L10.989 23.4333ZM13.7546 23.8083V26.2083C14.6341 26.2083 15.5166 26.0969 16.3366 25.7939L15.5046 23.5427L14.6727 21.2915C14.5343 21.3427 14.2502 21.4083 13.7546 21.4083V23.8083ZM15.5046 23.5427L16.3228 25.799C17.1329 25.5052 17.9292 25.0089 18.5113 24.2092C19.1006 23.3998 19.3265 22.4773 19.3265 21.5896H16.9265H14.5265C14.5265 21.6317 14.5213 21.6205 14.5354 21.5727C14.5506 21.5213 14.5807 21.4528 14.6307 21.3841C14.6802 21.3162 14.728 21.2768 14.7509 21.2608C14.7707 21.2469 14.7568 21.261 14.6864 21.2865L15.5046 23.5427ZM16.9265 21.5896H19.3265C19.3265 20.7314 19.111 19.8874 18.6403 19.1253L16.5984 20.3865L14.5565 21.6477C14.5515 21.6396 14.546 21.6293 14.5407 21.6173C14.5355 21.6052 14.5317 21.5939 14.529 21.5844C14.5234 21.5638 14.5265 21.5625 14.5265 21.5896H16.9265ZM16.5984 20.3865L18.6049 19.0697C18.1193 18.3297 17.424 17.7773 16.7502 17.3557C16.0533 16.9198 15.223 16.5279 14.3011 16.1671L13.4265 18.4021L12.552 20.6371C13.3071 20.9326 13.844 21.1995 14.2044 21.425C14.5878 21.6649 14.64 21.7765 14.5919 21.7033L16.5984 20.3865ZM13.4265 18.4021L14.1593 16.1167C12.322 15.5276 10.8533 14.9383 9.72374 14.3597L8.62964 16.4958L7.53554 18.632C8.96851 19.3659 10.6977 20.0475 12.6937 20.6875L13.4265 18.4021ZM8.62964 16.4958L9.73129 14.3636C8.72647 13.8445 8.13785 13.3109 7.80435 12.8305L5.83276 14.199L3.86117 15.5675C4.75685 16.8579 6.03281 17.8556 7.52799 18.6281L8.62964 16.4958ZM5.83276 14.199L7.81522 12.8462C7.53888 12.4413 7.32651 11.8415 7.32651 10.9021H4.92651H2.52651C2.52651 12.5877 2.91831 14.1858 3.85031 15.5517L5.83276 14.199ZM4.92651 10.9021H7.32651C7.32651 10.132 7.53419 9.54459 7.91705 9.03967L6.00464 7.5896L4.09223 6.13953C3.03758 7.53044 2.52651 9.15137 2.52651 10.9021H4.92651ZM6.00464 7.5896L7.90929 9.04984C8.3403 8.48766 8.97667 7.98168 9.92099 7.57585L8.97339 5.37085L8.02578 3.16585C6.44927 3.84335 5.10648 4.81654 4.09998 6.12936L6.00464 7.5896ZM8.97339 5.37085L9.92099 7.57585C10.8488 7.17711 11.9767 6.9374 13.3477 6.91103L13.3015 4.51147L13.2554 2.11192C11.3764 2.14805 9.61877 2.48125 8.02578 3.16585L8.97339 5.37085ZM13.3015 4.51147L13.3554 6.91087C15.022 6.87342 16.4095 7.04457 17.5507 7.37779L18.2234 5.07397L18.896 2.77016C17.1831 2.27004 15.2893 2.0662 13.2476 2.11208L13.3015 4.51147ZM18.2234 5.07397L17.5663 7.38227C18.7279 7.71295 19.7132 8.20471 20.5501 8.84239L22.0046 6.93335L23.4591 5.02431C22.1086 3.99532 20.573 3.2475 18.8805 2.76568L18.2234 5.07397ZM22.0046 6.93335H19.6046V12.4177H22.0046H24.4046V6.93335H22.0046ZM22.0046 12.4177V10.0177H17.9421V12.4177V14.8177H22.0046V12.4177ZM17.9421 12.4177L20.2908 11.9239L19.6502 8.87703L17.3015 9.37085L14.9529 9.86467L15.5935 12.9115L17.9421 12.4177ZM17.3015 9.37085L18.3748 7.22422C17.7652 6.91943 17.0412 6.70689 16.3065 6.54363L15.7859 8.88647L15.2653 11.2293C15.8431 11.3577 16.1295 11.4681 16.2282 11.5175L17.3015 9.37085ZM15.7859 8.88647L16.3065 6.54363C15.4633 6.35624 14.5896 6.26772 13.6921 6.26772V8.66772V11.0677C14.2739 11.0677 14.796 11.125 15.2653 11.2293L15.7859 8.88647ZM13.6921 8.66772V6.26772C12.8443 6.26772 11.9951 6.37393 11.2006 6.65641L12.0046 8.91772L12.8087 11.179C12.9517 11.1282 13.2275 11.0677 13.6921 11.0677V8.66772ZM12.0046 8.91772L11.2457 6.64088C10.4182 6.91672 9.63276 7.37668 9.01095 8.08731L10.8171 9.66772L12.6233 11.2481C12.6084 11.2652 12.6008 11.2679 12.6143 11.2594C12.6297 11.2497 12.6745 11.2242 12.7636 11.1946L12.0046 8.91772ZM10.8171 9.66772L8.98284 8.12003C8.28337 8.94903 7.99526 9.93906 7.99526 10.9177H10.3953H12.7953C12.7953 10.8935 12.7984 10.9275 12.7747 10.9977C12.7495 11.0723 12.7067 11.1499 12.6514 11.2154L10.8171 9.66772ZM10.3953 10.9177H7.99526C7.99526 11.8373 8.28596 12.6964 8.8272 13.4259L10.7546 11.9958L12.6821 10.5658C12.7042 10.5956 12.7368 10.6497 12.7619 10.7252C12.7872 10.8011 12.7953 10.8694 12.7953 10.9177H10.3953ZM10.7546 11.9958L8.82108 13.4176C9.42345 14.2368 10.3162 14.7941 11.1317 15.1957L12.1921 13.0427L13.2526 10.8897C12.9912 10.761 12.8225 10.6562 12.7222 10.5831C12.6172 10.5066 12.6317 10.4972 12.6882 10.5741L10.7546 11.9958ZM12.1921 13.0427L11.1317 15.1957C11.9087 15.5785 12.7656 15.9463 13.6971 16.3011L14.5515 14.0583L15.4059 11.8156C14.5874 11.5038 13.8714 11.1945 13.2526 10.8897L12.1921 13.0427ZM14.5515 14.0583L13.8738 16.3607C16.2874 17.0711 17.8872 17.9 18.8623 18.7379L20.4265 16.9177L21.9908 15.0975C20.2992 13.6438 17.9823 12.5664 15.2292 11.756L14.5515 14.0583ZM20.4265 16.9177L18.8775 18.7509C19.6164 19.3753 20.0421 20.2165 20.0421 21.5583H22.4421H24.8421C24.8421 18.9835 23.9241 16.731 21.9755 15.0845L20.4265 16.9177ZM22.4421 21.5583H20.0421C20.0421 22.4579 19.8102 23.0537 19.462 23.4965L21.3484 24.9802L23.2348 26.4639C24.3449 25.0525 24.8421 23.3671 24.8421 21.5583H22.4421ZM21.3484 24.9802L19.4461 23.5169C19.0282 24.0602 18.4006 24.5432 17.4412 24.9116L18.3015 27.1521L19.1619 29.3926C20.8066 28.761 22.2102 27.7961 23.2507 26.4435L21.3484 24.9802ZM18.3015 27.1521L17.4568 24.9056C16.4815 25.2724 15.2628 25.4865 13.7546 25.4865V27.8865V30.2865C15.7048 30.2865 17.5174 30.011 19.1462 29.3986L18.3015 27.1521Z" fill="#44403C" mask="url(#path-3-outside-2_1177_53)"/>
<path d="M13.0911 10.1275H15.7231V11.7969H13.0911V10.1275Z" fill="#44403C"/>
<path d="M10.6301 19.6804H14.407V21.7209H10.6301V19.6804Z" fill="#44403C"/>
<defs>
<linearGradient id="paint0_linear_1177_53" x1="13.1765" y1="3.55835" x2="13.1765" y2="28.29" gradientUnits="userSpaceOnUse">
<stop stop-color="#FDE047"/>
<stop offset="0.25" stop-color="#FDE047"/>
<stop offset="0.45" stop-color="#FBBF24"/>
<stop offset="0.75" stop-color="#F97316"/>
<stop offset="1" stop-color="#7C2D12"/>
</linearGradient>
</defs>
</svg>
